<mxfile host="app.diagrams.net" modified="2024-01-25T09:58:34.220Z" agent="Mozilla/5.0 (Windows NT 10.0; Win64; x64) AppleWebKit/537.36 (KHTML, like Gecko) Chrome/120.0.0.0 Safari/537.36" etag="GKHfETZcnPD-Mxp1dvQ4" version="23.0.1" type="device">
  <diagram name="Page-1" id="c_j6NqavuUEoGgrb1BIW">
    <mxGraphModel dx="1909" dy="1013" grid="1" gridSize="10" guides="1" tooltips="1" connect="1" arrows="1" fold="1" page="1" pageScale="1" pageWidth="827" pageHeight="1169" math="0" shadow="0">
      <root>
        <mxCell id="0" />
        <mxCell id="1" parent="0" />
        <mxCell id="_XLZP4F0tq0NP1Y74Qva-1" value="" style="rounded=0;whiteSpace=wrap;html=1;sketch=1;curveFitting=1;jiggle=2;fillColor=#f5f5f5;fontColor=#333333;strokeColor=#666666;" vertex="1" parent="1">
          <mxGeometry x="40" y="40" width="1400" height="150" as="geometry" />
        </mxCell>
        <mxCell id="_XLZP4F0tq0NP1Y74Qva-6" value="" style="ellipse;shape=doubleEllipse;margin=3;whiteSpace=wrap;html=1;align=center;fillColor=#fff2cc;strokeColor=#d6b656;gradientColor=#ffd966;" vertex="1" parent="1">
          <mxGeometry x="1100" y="80" width="80" height="70" as="geometry" />
        </mxCell>
        <mxCell id="_XLZP4F0tq0NP1Y74Qva-5" value="" style="shape=message;html=1;html=1;outlineConnect=0;labelPosition=center;verticalLabelPosition=bottom;align=center;verticalAlign=top;" vertex="1" parent="1">
          <mxGeometry x="1115" y="100" width="50" height="30" as="geometry" />
        </mxCell>
        <mxCell id="_XLZP4F0tq0NP1Y74Qva-12" style="edgeStyle=orthogonalEdgeStyle;rounded=0;orthogonalLoop=1;jettySize=auto;html=1;entryX=0;entryY=0.5;entryDx=0;entryDy=0;" edge="1" parent="1" source="_XLZP4F0tq0NP1Y74Qva-9" target="_XLZP4F0tq0NP1Y74Qva-6">
          <mxGeometry relative="1" as="geometry" />
        </mxCell>
        <mxCell id="_XLZP4F0tq0NP1Y74Qva-9" value="Request Booking" style="rounded=1;arcSize=10;whiteSpace=wrap;html=1;align=center;fillColor=#dae8fc;gradientColor=#7ea6e0;strokeColor=#6c8ebf;" vertex="1" parent="1">
          <mxGeometry x="130" y="85" width="120" height="60" as="geometry" />
        </mxCell>
        <mxCell id="_XLZP4F0tq0NP1Y74Qva-11" value="" style="shape=actor;whiteSpace=wrap;html=1;strokeColor=#000066;" vertex="1" parent="1">
          <mxGeometry x="140" y="85" width="20" height="20" as="geometry" />
        </mxCell>
        <mxCell id="_XLZP4F0tq0NP1Y74Qva-13" value="Booking Details" style="whiteSpace=wrap;html=1;align=center;strokeColor=#FFFFFF;" vertex="1" parent="1">
          <mxGeometry x="1090" y="50" width="100" height="20" as="geometry" />
        </mxCell>
        <mxCell id="_XLZP4F0tq0NP1Y74Qva-14" value="" style="html=1;whiteSpace=wrap;strokeColor=#666666;sketch=1;curveFitting=1;jiggle=2;fillColor=#f5f5f5;fontColor=#333333;" vertex="1" parent="1">
          <mxGeometry x="40" y="210" width="1400" height="320" as="geometry" />
        </mxCell>
        <mxCell id="_XLZP4F0tq0NP1Y74Qva-21" style="edgeStyle=orthogonalEdgeStyle;rounded=0;orthogonalLoop=1;jettySize=auto;html=1;entryX=0;entryY=0.5;entryDx=0;entryDy=0;" edge="1" parent="1" source="_XLZP4F0tq0NP1Y74Qva-16" target="_XLZP4F0tq0NP1Y74Qva-18">
          <mxGeometry relative="1" as="geometry" />
        </mxCell>
        <mxCell id="_XLZP4F0tq0NP1Y74Qva-16" value="" style="ellipse;whiteSpace=wrap;html=1;align=center;fillColor=#d5e8d4;gradientColor=#97d077;strokeColor=#82b366;" vertex="1" parent="1">
          <mxGeometry x="140" y="250" width="80" height="60" as="geometry" />
        </mxCell>
        <mxCell id="_XLZP4F0tq0NP1Y74Qva-17" value="" style="shape=message;html=1;html=1;outlineConnect=0;labelPosition=center;verticalLabelPosition=bottom;align=center;verticalAlign=top;" vertex="1" parent="1">
          <mxGeometry x="155" y="265" width="50" height="30" as="geometry" />
        </mxCell>
        <mxCell id="_XLZP4F0tq0NP1Y74Qva-30" style="edgeStyle=orthogonalEdgeStyle;rounded=0;orthogonalLoop=1;jettySize=auto;html=1;entryX=0;entryY=0.5;entryDx=0;entryDy=0;" edge="1" parent="1" source="_XLZP4F0tq0NP1Y74Qva-18" target="_XLZP4F0tq0NP1Y74Qva-27">
          <mxGeometry relative="1" as="geometry" />
        </mxCell>
        <mxCell id="_XLZP4F0tq0NP1Y74Qva-18" value="Get Booking Request" style="rounded=1;arcSize=10;whiteSpace=wrap;html=1;align=center;fillColor=#dae8fc;gradientColor=#7ea6e0;strokeColor=#6c8ebf;" vertex="1" parent="1">
          <mxGeometry x="294" y="250" width="106" height="60" as="geometry" />
        </mxCell>
        <mxCell id="_XLZP4F0tq0NP1Y74Qva-19" value="" style="shape=actor;whiteSpace=wrap;html=1;strokeColor=#000066;" vertex="1" parent="1">
          <mxGeometry x="370" y="290" width="20" height="20" as="geometry" />
        </mxCell>
        <mxCell id="_XLZP4F0tq0NP1Y74Qva-20" value="Calls for Cab&lt;br&gt;Booking" style="html=1;whiteSpace=wrap;strokeColor=#FFFFFF;" vertex="1" parent="1">
          <mxGeometry x="125" y="330" width="110" height="50" as="geometry" />
        </mxCell>
        <mxCell id="_XLZP4F0tq0NP1Y74Qva-22" style="rounded=0;orthogonalLoop=1;jettySize=auto;html=1;exitX=0.407;exitY=1.04;exitDx=0;exitDy=0;exitPerimeter=0;dashed=1;" edge="1" parent="1" source="_XLZP4F0tq0NP1Y74Qva-9" target="_XLZP4F0tq0NP1Y74Qva-16">
          <mxGeometry relative="1" as="geometry" />
        </mxCell>
        <mxCell id="_XLZP4F0tq0NP1Y74Qva-23" style="rounded=0;orthogonalLoop=1;jettySize=auto;html=1;entryX=0.25;entryY=0;entryDx=0;entryDy=0;dashed=1;" edge="1" parent="1" target="_XLZP4F0tq0NP1Y74Qva-18">
          <mxGeometry relative="1" as="geometry">
            <mxPoint x="321" y="190" as="sourcePoint" />
            <mxPoint x="320" y="250" as="targetPoint" />
          </mxGeometry>
        </mxCell>
        <mxCell id="_XLZP4F0tq0NP1Y74Qva-25" style="rounded=0;orthogonalLoop=1;jettySize=auto;html=1;entryX=0.221;entryY=1.004;entryDx=0;entryDy=0;entryPerimeter=0;dashed=1;" edge="1" parent="1" target="_XLZP4F0tq0NP1Y74Qva-1">
          <mxGeometry relative="1" as="geometry">
            <mxPoint x="350" y="180" as="targetPoint" />
            <mxPoint x="350" y="250" as="sourcePoint" />
          </mxGeometry>
        </mxCell>
        <mxCell id="_XLZP4F0tq0NP1Y74Qva-27" value="Check&amp;nbsp;&lt;br&gt;Availability" style="rounded=1;arcSize=10;whiteSpace=wrap;html=1;align=center;fillColor=#dae8fc;gradientColor=#7ea6e0;strokeColor=#6c8ebf;" vertex="1" parent="1">
          <mxGeometry x="470" y="250" width="100" height="60" as="geometry" />
        </mxCell>
        <mxCell id="_XLZP4F0tq0NP1Y74Qva-29" value="" style="shape=image;html=1;verticalLabelPosition=bottom;verticalAlign=top;imageAspect=1;aspect=fixed;image=img/clipart/Gear_128x128.png" vertex="1" parent="1">
          <mxGeometry x="545.9" y="250" width="24.1" height="28.27" as="geometry" />
        </mxCell>
        <mxCell id="_XLZP4F0tq0NP1Y74Qva-36" style="edgeStyle=orthogonalEdgeStyle;rounded=0;orthogonalLoop=1;jettySize=auto;html=1;" edge="1" parent="1" source="_XLZP4F0tq0NP1Y74Qva-31" target="_XLZP4F0tq0NP1Y74Qva-34">
          <mxGeometry relative="1" as="geometry" />
        </mxCell>
        <mxCell id="_XLZP4F0tq0NP1Y74Qva-41" style="edgeStyle=orthogonalEdgeStyle;rounded=0;orthogonalLoop=1;jettySize=auto;html=1;entryX=0;entryY=0.5;entryDx=0;entryDy=0;" edge="1" parent="1" source="_XLZP4F0tq0NP1Y74Qva-31" target="_XLZP4F0tq0NP1Y74Qva-37">
          <mxGeometry relative="1" as="geometry" />
        </mxCell>
        <mxCell id="_XLZP4F0tq0NP1Y74Qva-31" value="" style="strokeWidth=2;html=1;shape=mxgraph.flowchart.decision;whiteSpace=wrap;fillColor=#ffcd28;gradientColor=#ffa500;strokeColor=#d79b00;" vertex="1" parent="1">
          <mxGeometry x="640" y="260" width="50" height="40" as="geometry" />
        </mxCell>
        <mxCell id="_XLZP4F0tq0NP1Y74Qva-32" style="edgeStyle=orthogonalEdgeStyle;rounded=0;orthogonalLoop=1;jettySize=auto;html=1;entryX=0;entryY=0.5;entryDx=0;entryDy=0;entryPerimeter=0;" edge="1" parent="1" source="_XLZP4F0tq0NP1Y74Qva-27" target="_XLZP4F0tq0NP1Y74Qva-31">
          <mxGeometry relative="1" as="geometry" />
        </mxCell>
        <mxCell id="_XLZP4F0tq0NP1Y74Qva-33" value="Availability&lt;br&gt;Status" style="whiteSpace=wrap;html=1;align=center;strokeColor=#FFFFFF;" vertex="1" parent="1">
          <mxGeometry x="615" y="220" width="100" height="30" as="geometry" />
        </mxCell>
        <mxCell id="_XLZP4F0tq0NP1Y74Qva-34" value="Ger Alternative&lt;br&gt;Time" style="rounded=1;arcSize=5;whiteSpace=wrap;html=1;align=center;fillColor=#dae8fc;gradientColor=#7ea6e0;strokeColor=#6c8ebf;" vertex="1" parent="1">
          <mxGeometry x="615" y="410" width="100" height="60" as="geometry" />
        </mxCell>
        <mxCell id="_XLZP4F0tq0NP1Y74Qva-35" value="" style="shape=image;html=1;verticalLabelPosition=bottom;verticalAlign=top;imageAspect=1;aspect=fixed;image=img/clipart/Gear_128x128.png" vertex="1" parent="1">
          <mxGeometry x="690" y="441.73" width="24.1" height="28.27" as="geometry" />
        </mxCell>
        <mxCell id="_XLZP4F0tq0NP1Y74Qva-37" value="Propose Booking&lt;br&gt;Status" style="rounded=1;arcSize=10;whiteSpace=wrap;html=1;align=center;fillColor=#dae8fc;gradientColor=#7ea6e0;strokeColor=#6c8ebf;" vertex="1" parent="1">
          <mxGeometry x="760" y="250" width="120" height="60" as="geometry" />
        </mxCell>
        <mxCell id="_XLZP4F0tq0NP1Y74Qva-38" value="" style="shape=actor;whiteSpace=wrap;html=1;strokeColor=#000066;" vertex="1" parent="1">
          <mxGeometry x="850" y="290" width="20" height="20" as="geometry" />
        </mxCell>
        <mxCell id="_XLZP4F0tq0NP1Y74Qva-42" style="edgeStyle=orthogonalEdgeStyle;rounded=0;orthogonalLoop=1;jettySize=auto;html=1;entryX=0;entryY=0.5;entryDx=0;entryDy=0;exitX=0.28;exitY=1.015;exitDx=0;exitDy=0;exitPerimeter=0;dashed=1;" edge="1" parent="1">
          <mxGeometry relative="1" as="geometry">
            <mxPoint x="810" y="192" as="sourcePoint" />
            <mxPoint x="810" y="250" as="targetPoint" />
          </mxGeometry>
        </mxCell>
        <mxCell id="_XLZP4F0tq0NP1Y74Qva-43" style="rounded=0;orthogonalLoop=1;jettySize=auto;html=1;entryX=0.312;entryY=1.02;entryDx=0;entryDy=0;entryPerimeter=0;dashed=1;" edge="1" parent="1">
          <mxGeometry relative="1" as="geometry">
            <mxPoint x="842" y="193" as="targetPoint" />
            <mxPoint x="840" y="250" as="sourcePoint" />
          </mxGeometry>
        </mxCell>
        <mxCell id="_XLZP4F0tq0NP1Y74Qva-52" style="edgeStyle=orthogonalEdgeStyle;rounded=0;orthogonalLoop=1;jettySize=auto;html=1;" edge="1" parent="1" source="_XLZP4F0tq0NP1Y74Qva-44" target="_XLZP4F0tq0NP1Y74Qva-50">
          <mxGeometry relative="1" as="geometry" />
        </mxCell>
        <mxCell id="_XLZP4F0tq0NP1Y74Qva-44" value="" style="strokeWidth=2;html=1;shape=mxgraph.flowchart.decision;whiteSpace=wrap;fillColor=#ffcd28;gradientColor=#ffa500;strokeColor=#d79b00;" vertex="1" parent="1">
          <mxGeometry x="950" y="260" width="50" height="40" as="geometry" />
        </mxCell>
        <mxCell id="_XLZP4F0tq0NP1Y74Qva-45" style="edgeStyle=orthogonalEdgeStyle;rounded=0;orthogonalLoop=1;jettySize=auto;html=1;entryX=0;entryY=0.5;entryDx=0;entryDy=0;entryPerimeter=0;" edge="1" parent="1" source="_XLZP4F0tq0NP1Y74Qva-37" target="_XLZP4F0tq0NP1Y74Qva-44">
          <mxGeometry relative="1" as="geometry" />
        </mxCell>
        <mxCell id="_XLZP4F0tq0NP1Y74Qva-46" value="Response" style="whiteSpace=wrap;html=1;align=center;strokeColor=#FFFFFF;" vertex="1" parent="1">
          <mxGeometry x="890" y="245" width="70" height="20" as="geometry" />
        </mxCell>
        <mxCell id="_XLZP4F0tq0NP1Y74Qva-47" value="" style="verticalLabelPosition=bottom;verticalAlign=top;html=1;shape=mxgraph.flowchart.on-page_reference;fillColor=#f8cecc;gradientColor=#ea6b66;strokeColor=#000000;strokeWidth=3;" vertex="1" parent="1">
          <mxGeometry x="957.5" y="420" width="35" height="30" as="geometry" />
        </mxCell>
        <mxCell id="_XLZP4F0tq0NP1Y74Qva-48" style="edgeStyle=orthogonalEdgeStyle;rounded=0;orthogonalLoop=1;jettySize=auto;html=1;entryX=0.5;entryY=0;entryDx=0;entryDy=0;entryPerimeter=0;" edge="1" parent="1" source="_XLZP4F0tq0NP1Y74Qva-44" target="_XLZP4F0tq0NP1Y74Qva-47">
          <mxGeometry relative="1" as="geometry" />
        </mxCell>
        <mxCell id="_XLZP4F0tq0NP1Y74Qva-49" value="Not Accepted" style="whiteSpace=wrap;html=1;align=center;rotation=-90;strokeColor=#FFFFFF;" vertex="1" parent="1">
          <mxGeometry x="895" y="335" width="100" height="40" as="geometry" />
        </mxCell>
        <mxCell id="_XLZP4F0tq0NP1Y74Qva-56" style="edgeStyle=orthogonalEdgeStyle;rounded=0;orthogonalLoop=1;jettySize=auto;html=1;entryX=0.5;entryY=1;entryDx=0;entryDy=0;dashed=1;" edge="1" parent="1" source="_XLZP4F0tq0NP1Y74Qva-50" target="_XLZP4F0tq0NP1Y74Qva-6">
          <mxGeometry relative="1" as="geometry" />
        </mxCell>
        <mxCell id="_XLZP4F0tq0NP1Y74Qva-59" style="edgeStyle=orthogonalEdgeStyle;rounded=0;orthogonalLoop=1;jettySize=auto;html=1;" edge="1" parent="1" source="_XLZP4F0tq0NP1Y74Qva-50" target="_XLZP4F0tq0NP1Y74Qva-57">
          <mxGeometry relative="1" as="geometry" />
        </mxCell>
        <mxCell id="_XLZP4F0tq0NP1Y74Qva-81" style="edgeStyle=orthogonalEdgeStyle;rounded=0;orthogonalLoop=1;jettySize=auto;html=1;entryX=0.5;entryY=0;entryDx=0;entryDy=0;dashed=1;" edge="1" parent="1" source="_XLZP4F0tq0NP1Y74Qva-50" target="_XLZP4F0tq0NP1Y74Qva-76">
          <mxGeometry relative="1" as="geometry">
            <Array as="points">
              <mxPoint x="1140" y="430" />
              <mxPoint x="1025" y="430" />
            </Array>
          </mxGeometry>
        </mxCell>
        <mxCell id="_XLZP4F0tq0NP1Y74Qva-50" value="Confirm Booking" style="rounded=1;arcSize=10;whiteSpace=wrap;html=1;align=center;fillColor=#dae8fc;gradientColor=#7ea6e0;strokeColor=#6c8ebf;" vertex="1" parent="1">
          <mxGeometry x="1090" y="250" width="100" height="60" as="geometry" />
        </mxCell>
        <mxCell id="_XLZP4F0tq0NP1Y74Qva-51" value="" style="shape=actor;whiteSpace=wrap;html=1;strokeColor=#000066;" vertex="1" parent="1">
          <mxGeometry x="1100" y="290" width="20" height="20" as="geometry" />
        </mxCell>
        <mxCell id="_XLZP4F0tq0NP1Y74Qva-53" value="Accepted" style="whiteSpace=wrap;html=1;align=center;strokeColor=#FFFFFF;" vertex="1" parent="1">
          <mxGeometry x="1000" y="245" width="90" height="30" as="geometry" />
        </mxCell>
        <mxCell id="_XLZP4F0tq0NP1Y74Qva-54" style="edgeStyle=orthogonalEdgeStyle;rounded=0;orthogonalLoop=1;jettySize=auto;html=1;entryX=0.437;entryY=0.983;entryDx=0;entryDy=0;entryPerimeter=0;" edge="1" parent="1" source="_XLZP4F0tq0NP1Y74Qva-34" target="_XLZP4F0tq0NP1Y74Qva-37">
          <mxGeometry relative="1" as="geometry" />
        </mxCell>
        <mxCell id="_XLZP4F0tq0NP1Y74Qva-57" value="" style="ellipse;shape=doubleEllipse;margin=3;whiteSpace=wrap;html=1;align=center;fillColor=#fff2cc;strokeColor=#d6b656;gradientColor=#ffd966;" vertex="1" parent="1">
          <mxGeometry x="1250" y="255" width="60" height="50" as="geometry" />
        </mxCell>
        <mxCell id="_XLZP4F0tq0NP1Y74Qva-62" style="edgeStyle=orthogonalEdgeStyle;rounded=0;orthogonalLoop=1;jettySize=auto;html=1;" edge="1" parent="1" source="_XLZP4F0tq0NP1Y74Qva-58" target="_XLZP4F0tq0NP1Y74Qva-61">
          <mxGeometry relative="1" as="geometry" />
        </mxCell>
        <mxCell id="_XLZP4F0tq0NP1Y74Qva-58" value="" style="shape=message;html=1;html=1;outlineConnect=0;labelPosition=center;verticalLabelPosition=bottom;align=center;verticalAlign=top;" vertex="1" parent="1">
          <mxGeometry x="1265" y="270" width="30" height="20" as="geometry" />
        </mxCell>
        <mxCell id="_XLZP4F0tq0NP1Y74Qva-60" value="Assignment&lt;br&gt;Complete" style="whiteSpace=wrap;html=1;align=center;strokeColor=#FFFFFF;" vertex="1" parent="1">
          <mxGeometry x="1190" y="217.5" width="80" height="35" as="geometry" />
        </mxCell>
        <mxCell id="_XLZP4F0tq0NP1Y74Qva-61" value="" style="verticalLabelPosition=bottom;verticalAlign=top;html=1;shape=mxgraph.flowchart.on-page_reference;fillColor=#f8cecc;gradientColor=#ea6b66;strokeColor=#000000;strokeWidth=3;" vertex="1" parent="1">
          <mxGeometry x="1350" y="265" width="35" height="30" as="geometry" />
        </mxCell>
        <mxCell id="_XLZP4F0tq0NP1Y74Qva-63" value="End" style="whiteSpace=wrap;html=1;align=center;strokeColor=#FFFFFF;" vertex="1" parent="1">
          <mxGeometry x="1310" y="235" width="50" height="25" as="geometry" />
        </mxCell>
        <mxCell id="_XLZP4F0tq0NP1Y74Qva-64" value="" style="whiteSpace=wrap;html=1;align=center;strokeColor=#666666;fillColor=#f5f5f5;fontColor=#333333;sketch=1;curveFitting=1;jiggle=2;" vertex="1" parent="1">
          <mxGeometry x="40" y="550" width="1400" height="130" as="geometry" />
        </mxCell>
        <mxCell id="_XLZP4F0tq0NP1Y74Qva-65" value="Cab Driver" style="whiteSpace=wrap;html=1;align=center;rotation=-90;fillColor=#d5e8d4;gradientColor=#97d077;strokeColor=#82b366;" vertex="1" parent="1">
          <mxGeometry x="-5" y="595" width="130" height="40" as="geometry" />
        </mxCell>
        <mxCell id="_XLZP4F0tq0NP1Y74Qva-66" value="Customer" style="whiteSpace=wrap;html=1;align=center;rotation=-90;fillColor=#d5e8d4;gradientColor=#97d077;strokeColor=#82b366;" vertex="1" parent="1">
          <mxGeometry x="-15" y="95" width="150" height="40" as="geometry" />
        </mxCell>
        <mxCell id="_XLZP4F0tq0NP1Y74Qva-67" value="Travel Agent" style="whiteSpace=wrap;html=1;align=center;rotation=-90;fillColor=#d5e8d4;gradientColor=#97d077;strokeColor=#82b366;" vertex="1" parent="1">
          <mxGeometry x="-100" y="350" width="320" height="40" as="geometry" />
        </mxCell>
        <mxCell id="_XLZP4F0tq0NP1Y74Qva-72" style="edgeStyle=orthogonalEdgeStyle;rounded=0;orthogonalLoop=1;jettySize=auto;html=1;entryX=0.5;entryY=1;entryDx=0;entryDy=0;dashed=1;" edge="1" parent="1" source="_XLZP4F0tq0NP1Y74Qva-68" target="_XLZP4F0tq0NP1Y74Qva-57">
          <mxGeometry relative="1" as="geometry" />
        </mxCell>
        <mxCell id="_XLZP4F0tq0NP1Y74Qva-68" value="Complete&lt;br&gt;Assignment" style="rounded=1;arcSize=10;whiteSpace=wrap;html=1;align=center;fillColor=#dae8fc;gradientColor=#7ea6e0;strokeColor=#6c8ebf;" vertex="1" parent="1">
          <mxGeometry x="1225" y="585" width="110" height="65" as="geometry" />
        </mxCell>
        <mxCell id="_XLZP4F0tq0NP1Y74Qva-71" value="" style="shape=actor;whiteSpace=wrap;html=1;strokeColor=#000066;" vertex="1" parent="1">
          <mxGeometry x="1310" y="627.5" width="20" height="20" as="geometry" />
        </mxCell>
        <mxCell id="_XLZP4F0tq0NP1Y74Qva-73" value="Notify Agent" style="whiteSpace=wrap;html=1;align=center;rotation=90;strokeColor=#FFFFFF;" vertex="1" parent="1">
          <mxGeometry x="1210" y="401.73" width="200" height="40" as="geometry" />
        </mxCell>
        <mxCell id="_XLZP4F0tq0NP1Y74Qva-74" value="" style="verticalLabelPosition=bottom;verticalAlign=top;html=1;shape=mxgraph.flowchart.on-page_reference;fillColor=#f8cecc;gradientColor=#ea6b66;strokeColor=#000000;strokeWidth=3;" vertex="1" parent="1">
          <mxGeometry x="1400" y="602.5" width="35" height="30" as="geometry" />
        </mxCell>
        <mxCell id="_XLZP4F0tq0NP1Y74Qva-75" style="rounded=0;orthogonalLoop=1;jettySize=auto;html=1;" edge="1" parent="1" source="_XLZP4F0tq0NP1Y74Qva-68">
          <mxGeometry relative="1" as="geometry">
            <mxPoint x="1400" y="618" as="targetPoint" />
          </mxGeometry>
        </mxCell>
        <mxCell id="_XLZP4F0tq0NP1Y74Qva-80" style="edgeStyle=orthogonalEdgeStyle;rounded=0;orthogonalLoop=1;jettySize=auto;html=1;" edge="1" parent="1" source="_XLZP4F0tq0NP1Y74Qva-76" target="_XLZP4F0tq0NP1Y74Qva-68">
          <mxGeometry relative="1" as="geometry" />
        </mxCell>
        <mxCell id="_XLZP4F0tq0NP1Y74Qva-76" value="Pick Up&lt;br&gt;Customer" style="rounded=1;arcSize=10;whiteSpace=wrap;html=1;align=center;fillColor=#dae8fc;gradientColor=#7ea6e0;strokeColor=#6c8ebf;" vertex="1" parent="1">
          <mxGeometry x="970" y="585" width="110" height="65" as="geometry" />
        </mxCell>
        <mxCell id="_XLZP4F0tq0NP1Y74Qva-78" value="" style="html=1;verticalLabelPosition=bottom;align=center;labelBackgroundColor=#ffffff;verticalAlign=top;strokeWidth=2;strokeColor=#000000;shadow=0;dashed=0;shape=mxgraph.ios7.icons.alarm_clock;" vertex="1" parent="1">
          <mxGeometry x="1050" y="630" width="20" height="20" as="geometry" />
        </mxCell>
        <mxCell id="_XLZP4F0tq0NP1Y74Qva-79" value="" style="shape=actor;whiteSpace=wrap;html=1;strokeColor=#000066;" vertex="1" parent="1">
          <mxGeometry x="1060" y="595" width="20" height="20" as="geometry" />
        </mxCell>
        <mxCell id="_XLZP4F0tq0NP1Y74Qva-82" value="Assign Cab Operator" style="whiteSpace=wrap;html=1;align=center;strokeColor=#FFFFFF;" vertex="1" parent="1">
          <mxGeometry x="1040" y="450" width="160" height="40" as="geometry" />
        </mxCell>
      </root>
    </mxGraphModel>
  </diagram>
</mxfile>
